<?xml version="1.0" encoding="utf-8"?>
<!-- Generator: Adobe Illustrator 24.0.2, SVG Export Plug-In . SVG Version: 6.00 Build 0)  -->
<svg version="1.1" id="Layer_1" xmlns="http://www.w3.org/2000/svg" xmlns:xlink="http://www.w3.org/1999/xlink" x="0px" y="0px"
	 viewBox="0 0 1000 1000" style="enable-background:new 0 0 1000 1000;" xml:space="preserve">
<style type="text/css">
	.st0{fill:#FFFFFF;}
	.st1{fill:#FF0000;}
	.st2{fill:none;stroke:#000000;stroke-width:4;stroke-miterlimit:10;}
</style>
<rect x="-8.5" y="-6.4" class="st0" width="1032.2" height="1019.6"/>
<path d="M719.4,262.2H268.5v30v9.5V732h2.9h11.3h166.9h14.2h70.9h14.2h70.9H634h70.9h6.3h7.9V301.6h0.3V262.2z M282.7,382h72.5v70.9
	h-72.5V382z M534.6,542.1h-70.9v-74.9h70.9V542.1z M548.8,467.1h70.9v74.9h-70.9V467.1z M449.5,542.1h-80.1v-74.9h80.1V542.1z
	 M463.7,452.9V382h70.9v70.9H463.7z M463.7,367.8v-66.2h70.9v66.2H463.7z M449.5,367.8h-80.1v-66.2h80.1V367.8z M449.5,382v70.9
	h-80.1V382H449.5z M282.7,467.1h72.5v74.9h-72.5V467.1z M282.7,556.3h72.5v72.9h-72.5V556.3z M369.4,556.3h80.1v72.9h-80.1V556.3z
	 M463.7,556.3h70.9v72.9h-70.9V556.3z M548.8,556.3h70.9v72.9h-70.9V556.3z M634,556.3h70.9v72.9H634V556.3z M634,542.1v-74.9h70.9
	v74.9H634z M634,452.9V382h70.9v70.9H634z M619.8,452.9h-70.9V382h70.9V452.9z M548.8,367.8v-66.2h70.9v66.2H548.8z M355.2,301.6
	v66.2h-72.5v-66.2H355.2z M282.7,643.4h72.5v74.4h-72.5V643.4z M369.4,717.8v-74.4h80.1v74.4H369.4z M463.7,717.8v-74.4h70.9v74.4
	H463.7z M548.8,717.8v-74.4h70.9v74.4H548.8z M634,717.8v-74.4h70.9v74.4H634z M704.9,367.8H634v-66.2h70.9V367.8z"/>
<circle class="st1" cx="542.3" cy="418.2" r="30.5"/>
<circle class="st1" cx="631.8" cy="500.3" r="30.5"/>
<circle class="st1" cx="708.4" cy="414" r="30.5"/>
<line class="st2" x1="245.9" y1="167" x2="313.7" y2="234.8"/>
<line class="st2" x1="313.7" y1="167" x2="245.9" y2="234.8"/>
<line class="st2" x1="332.1" y1="167" x2="399.9" y2="234.8"/>
<line class="st2" x1="399.9" y1="167" x2="332.1" y2="234.8"/>
<circle class="st2" cx="460.3" cy="204" r="36.8"/>
</svg>
